<?xml version="1.0" encoding="UTF-8" standalone="no"?> <svg width="64" height="64" viewBox="0 0 64 64" fill="none" xmlns="http://www.w3.org/2000/svg">
<path d="M21.87 13.6696C21.6843 13.4836 21.4637 13.3361 21.2209 13.2355C20.9781 13.1348 20.7179 13.083 20.455 13.083C20.1922 13.083 19.9319 13.1348 19.6891 13.2355C19.4464 13.3361 19.2258 13.4836 19.04 13.6696L2.13003 30.5896C1.94408 30.7753 1.79656 30.9959 1.69591 31.2387C1.59526 31.4815 1.54346 31.7418 1.54346 32.0046C1.54346 32.2674 1.59526 32.5277 1.69591 32.7705C1.79656 33.0133 1.94408 33.2338 2.13003 33.4196L19 50.3296C19.3753 50.7049 19.8843 50.9157 20.415 50.9157C20.9458 50.9157 21.4547 50.7049 21.83 50.3296C22.2053 49.9543 22.4161 49.4453 22.4161 48.9146C22.4161 48.3839 22.2053 47.8749 21.83 47.4996L6.37003 31.9996L21.87 16.4996C22.056 16.3138 22.2035 16.0933 22.3041 15.8505C22.4048 15.6077 22.4566 15.3474 22.4566 15.0846C22.4566 14.8218 22.4048 14.5615 22.3041 14.3187C22.2035 14.0759 22.056 13.8553 21.87 13.6696V13.6696Z" fill="black"/>
<path d="M61.4101 30.5896L44.5001 13.6696C44.1248 13.2943 43.6158 13.0835 43.0851 13.0835C42.5544 13.0835 42.0454 13.2943 41.6701 13.6696C41.2948 14.0449 41.084 14.5539 41.084 15.0846C41.084 15.6153 41.2948 16.1243 41.6701 16.4996L57.1701 31.9996L41.6701 47.4996C41.2948 47.8749 41.084 48.3839 41.084 48.9146C41.084 49.4453 41.2948 49.9543 41.6701 50.3296C42.0454 50.7049 42.5544 50.9157 43.0851 50.9157C43.6158 50.9157 44.1248 50.7049 44.5001 50.3296L61.4101 33.4096C61.7826 33.0349 61.9917 32.528 61.9917 31.9996C61.9917 31.4712 61.7826 30.9643 61.4101 30.5896V30.5896Z" fill="black"/>
<path d="M36.93 7.48978C36.6719 7.43732 36.406 7.43636 36.1476 7.48694C35.8891 7.53751 35.6432 7.63864 35.4239 7.78452C35.2046 7.9304 35.0163 8.11815 34.8698 8.33699C34.7232 8.55584 34.6214 8.80147 34.57 9.05979L25.5 54.1498C25.4476 54.4079 25.4466 54.6738 25.4972 54.9323C25.5478 55.1907 25.6489 55.4367 25.7948 55.6559C25.9407 55.8752 26.1284 56.0635 26.3472 56.2101C26.5661 56.3566 26.8117 56.4584 27.07 56.5098C27.203 56.5232 27.337 56.5232 27.47 56.5098C27.9393 56.5188 28.3969 56.3624 28.7625 56.0681C29.1281 55.7737 29.3786 55.3602 29.47 54.8998L38.5 9.84979C38.5525 9.59169 38.5535 9.32578 38.5029 9.06731C38.4523 8.80885 38.3512 8.56291 38.2053 8.34364C38.0594 8.12436 37.8717 7.93605 37.6528 7.78952C37.434 7.64299 37.1884 7.54113 36.93 7.48978V7.48978Z" fill="black"/>
</svg>
