<svg width="73" height="80" viewBox="0 0 73 80" fill="none" xmlns="http://www.w3.org/2000/svg">
    <path
        d="M63.5025 0C68.19 0 71.965 3.79 72.1875 8.255V80L63.2675 72.4225L58.3725 67.97L53.02 63.3075L55.2475 70.6525H8.4625C3.7875 70.6525 0 67.11 0 62.3975V8.27C0 3.805 3.79 0.015 8.4775 0.015H63.4775L63.5025 0ZM43.11 18.945H43.005L42.3275 19.61C49.2425 21.615 52.5875 24.74 52.5875 24.74C48.135 22.5125 44.11 21.3925 40.1 20.9375C37.21 20.495 34.305 20.73 31.8575 20.9375H31.18C29.6175 20.9375 26.285 21.615 21.8175 23.3975C20.2675 24.075 19.37 24.5175 19.37 24.5175C19.37 24.5175 22.7025 21.17 30.0725 19.3875L29.6175 18.945C29.6175 18.945 24.045 18.7225 18.03 23.1775C18.03 23.1775 12.015 33.66 12.015 46.575C12.015 46.575 15.3475 52.37 24.49 52.59C24.49 52.59 25.83 50.82 27.1725 49.2575C22.0425 47.695 20.0375 44.57 20.0375 44.57C20.0375 44.57 20.4925 44.7925 21.1575 45.235H21.3525C21.4575 45.235 21.51 45.2875 21.56 45.34V45.365C21.6125 45.4175 21.665 45.455 21.755 45.455C22.8625 45.91 23.955 46.3525 24.855 46.795C26.4175 47.46 28.41 48.135 30.8575 48.58C33.9575 49.035 37.51 49.245 41.56 48.58C43.5525 48.125 45.5575 47.695 47.5625 46.795C48.8525 46.13 50.4525 45.4675 52.21 44.335C52.21 44.335 50.2175 47.46 44.865 49.0225C45.96 50.5725 47.5075 52.355 47.5075 52.355C56.66 52.1475 60.215 46.3525 60.41 46.6C60.41 33.6975 54.355 23.2025 54.355 23.2025C48.9125 19.1525 43.8075 18.9975 42.91 18.9975L43.0925 18.9325L43.11 18.945ZM43.67 33.66C46.015 33.66 47.9025 35.6525 47.9025 38.1C47.9025 40.575 46.0025 42.565 43.67 42.565C41.325 42.565 39.4375 40.5725 39.4375 38.125C39.4375 35.65 41.3375 33.66 43.67 33.66ZM28.5275 33.66C30.8575 33.66 32.7475 35.6525 32.7475 38.1C32.7475 40.575 30.8475 42.565 28.515 42.565C26.17 42.565 24.27 40.5725 24.27 38.125C24.27 35.65 26.17 33.66 28.515 33.66H28.5275Z"
        fill="black" />
</svg>