<svg width="81" height="80" viewBox="0 0 81 80" fill="none" xmlns="http://www.w3.org/2000/svg">
    <path
        d="M80.4956 40.2478C80.4956 18.0134 62.4671 0 40.2478 0C18.0134 0 0 18.0134 0 40.2478C0 60.3314 14.7131 76.9839 33.9591 80V51.8844H23.7386V40.2503H33.9591V31.3782C33.9591 21.2936 39.9585 15.7243 49.1551 15.7243C53.5597 15.7243 58.1706 16.5091 58.1706 16.5091V26.4126H53.0868C48.0961 26.4126 46.5365 29.5192 46.5365 32.7013V40.2478H57.6977L55.9042 51.8819H46.5365V79.9975C65.7674 76.9814 80.4956 60.3289 80.4956 40.2453V40.2478Z"
        fill="black" />
</svg>