<svg width="35" height="34" viewBox="0 0 35 34" fill="none" xmlns="http://www.w3.org/2000/svg">
<path d="M17.5007 0.333984C8.33398 0.333984 0.833984 7.83398 0.833984 17.0007C0.833984 26.1673 8.33398 33.6673 17.5007 33.6673C26.6673 33.6673 34.1673 26.1673 34.1673 17.0007C34.1673 7.83398 26.6673 0.333984 17.5007 0.333984ZM17.5007 30.334C10.1507 30.334 4.16732 24.3507 4.16732 17.0007C4.16732 9.65065 10.1507 3.66732 17.5007 3.66732C24.8507 3.66732 30.834 9.65065 30.834 17.0007C30.834 24.3507 24.8507 30.334 17.5007 30.334ZM25.1507 9.63398L14.1673 20.6173L9.85065 16.3173L7.50065 18.6673L14.1673 25.334L27.5007 12.0007L25.1507 9.63398Z" fill="#22B573"/>
</svg>
