<svg width="34" height="34" viewBox="0 0 34 34" fill="none" xmlns="http://www.w3.org/2000/svg">
    <path
        d="M9.83398 24.1673C10.1395 24.4729 10.5284 24.6257 11.0007 24.6257C11.4729 24.6257 11.8618 24.4729 12.1673 24.1673L17.0007 19.334L21.8757 24.209C22.1812 24.5145 22.5634 24.6601 23.0223 24.6457C23.4801 24.6323 23.8618 24.4729 24.1673 24.1673C24.4729 23.8618 24.6257 23.4729 24.6257 23.0007C24.6257 22.5284 24.4729 22.1395 24.1673 21.834L19.334 17.0007L24.209 12.1257C24.5145 11.8201 24.6601 11.4379 24.6457 10.979C24.6323 10.5212 24.4729 10.1395 24.1673 9.83398C23.8618 9.52843 23.4729 9.37565 23.0007 9.37565C22.5284 9.37565 22.1395 9.52843 21.834 9.83398L17.0007 14.6673L12.1257 9.79232C11.8201 9.48676 11.4384 9.34065 10.9806 9.35398C10.5218 9.36843 10.1395 9.52843 9.83398 9.83398C9.52843 10.1395 9.37565 10.5284 9.37565 11.0007C9.37565 11.4729 9.52843 11.8618 9.83398 12.1673L14.6673 17.0007L9.79232 21.8757C9.48676 22.1812 9.34121 22.5629 9.35565 23.0207C9.36898 23.4795 9.52843 23.8618 9.83398 24.1673ZM17.0007 33.6673C14.6951 33.6673 12.5284 33.2295 10.5007 32.354C8.47287 31.4795 6.70898 30.2923 5.20898 28.7923C3.70898 27.2923 2.52176 25.5284 1.64732 23.5007C0.771762 21.4729 0.333984 19.3062 0.333984 17.0007C0.333984 14.6951 0.771762 12.5284 1.64732 10.5007C2.52176 8.47287 3.70898 6.70898 5.20898 5.20898C6.70898 3.70898 8.47287 2.52121 10.5007 1.64565C12.5284 0.771206 14.6951 0.333984 17.0007 0.333984C19.3062 0.333984 21.4729 0.771206 23.5007 1.64565C25.5284 2.52121 27.2923 3.70898 28.7923 5.20898C30.2923 6.70898 31.4795 8.47287 32.354 10.5007C33.2295 12.5284 33.6673 14.6951 33.6673 17.0007C33.6673 19.3062 33.2295 21.4729 32.354 23.5007C31.4795 25.5284 30.2923 27.2923 28.7923 28.7923C27.2923 30.2923 25.5284 31.4795 23.5007 32.354C21.4729 33.2295 19.3062 33.6673 17.0007 33.6673ZM17.0007 30.334C20.6951 30.334 23.8412 29.0357 26.439 26.439C29.0357 23.8412 30.334 20.6951 30.334 17.0007C30.334 13.3062 29.0357 10.1601 26.439 7.56232C23.8412 4.96565 20.6951 3.66732 17.0007 3.66732C13.3062 3.66732 10.1607 4.96565 7.56398 7.56232C4.96621 10.1601 3.66732 13.3062 3.66732 17.0007C3.66732 20.6951 4.96621 23.8412 7.56398 26.439C10.1607 29.0357 13.3062 30.334 17.0007 30.334Z"
        fill="#FF0000" />
</svg>