<svg width="80" height="80" viewBox="0 0 80 80" fill="none" xmlns="http://www.w3.org/2000/svg">
    <path
        d="M40 0C29.1261 0 27.771 0.0525066 23.5154 0.232529C19.2424 0.442555 16.352 1.10514 13.8017 2.09526C11.1714 3.12539 8.93112 4.49306 6.71834 6.71834C4.49056 8.93112 3.11039 11.1714 2.09526 13.8017C1.10514 16.352 0.442555 19.2424 0.232529 23.5154C0.040005 27.7735 0 29.1261 0 40C0 50.8739 0.0525066 52.229 0.232529 56.4846C0.442555 60.7451 1.10514 63.648 2.09526 66.1983C3.12539 68.8286 4.49306 71.0689 6.71834 73.2817C8.93112 75.5094 11.1714 76.8896 13.8017 77.9047C16.352 78.8824 19.2549 79.5575 23.5154 79.7675C27.7735 79.96 29.1261 80 40 80C50.8739 80 52.229 79.9475 56.4846 79.7675C60.7451 79.5575 63.648 78.8799 66.1983 77.9047C68.8286 76.8746 71.0689 75.5069 73.2817 73.2817C75.5094 71.0689 76.8896 68.8411 77.9047 66.1983C78.8824 63.648 79.5574 60.7451 79.7675 56.4846C79.96 52.2265 80 50.8739 80 40C80 29.1261 79.9475 27.771 79.7675 23.5154C79.5574 19.2549 78.8799 16.337 77.9047 13.8017C76.8746 11.1714 75.5069 8.93112 73.2817 6.71834C71.0689 4.49056 68.8411 3.11039 66.1983 2.09526C63.648 1.10514 60.7451 0.442555 56.4846 0.232529C52.2265 0.040005 50.8739 0 40 0V0ZM40 7.2009C50.6788 7.2009 51.954 7.25341 56.1745 7.43343C60.0675 7.61595 62.1878 8.26603 63.5954 8.8161C65.4732 9.54369 66.7858 10.4038 68.206 11.809C69.5987 13.2017 70.4588 14.5293 71.1864 16.4071C71.7365 17.8147 72.3865 19.935 72.5691 23.828C72.7491 28.0485 72.8016 29.3262 72.8016 40.0025C72.8016 50.6788 72.7491 51.9565 72.5541 56.177C72.344 60.07 71.694 62.1903 71.1464 63.598C70.3888 65.4757 69.5437 66.7884 68.1485 68.2085C66.7408 69.6012 65.4007 70.4613 63.5379 71.1889C62.1478 71.739 59.9975 72.3891 56.0895 72.5716C51.8465 72.7516 50.5963 72.8041 39.89 72.8041C29.1836 72.8041 27.936 72.7516 23.688 72.5566C19.795 72.3465 17.6472 71.6965 16.2395 71.1489C14.3393 70.3913 13.0366 69.5462 11.6415 68.151C10.2338 66.7433 9.33867 65.4032 8.64858 63.5404C8.08851 62.1503 7.44843 60 7.2409 56.092C7.09839 51.899 7.03088 50.5988 7.03088 39.9425C7.03088 29.2912 7.09839 27.9885 7.2409 23.743C7.44843 19.835 8.08851 17.6897 8.64858 16.2945C9.33867 14.3918 10.2363 13.0916 11.6415 11.684C13.0341 10.2913 14.3393 9.39117 16.2395 8.68609C17.6472 8.13852 19.7425 7.48844 23.6505 7.29341C27.8935 7.14089 29.1436 7.08589 39.835 7.08589L40 7.2009ZM40 19.4699C28.6461 19.4699 19.4649 28.6636 19.4649 40.005C19.4649 51.3589 28.6586 60.5401 40 60.5401C51.3539 60.5401 60.5351 51.3464 60.5351 40.005C60.5351 28.6511 51.3414 19.4699 40 19.4699V19.4699ZM40 53.3392C32.6291 53.3392 26.6658 47.3759 26.6658 40.005C26.6658 32.6341 32.6291 26.6708 40 26.6708C47.3709 26.6708 53.3342 32.6341 53.3342 40.005C53.3342 47.3759 47.3709 53.3392 40 53.3392V53.3392ZM66.1633 18.6498C66.1633 21.3077 64.0005 23.4529 61.3552 23.4529C58.6973 23.4529 56.5521 21.3052 56.5521 18.6498C56.5521 16.007 58.7123 13.8567 61.3552 13.8567C63.998 13.8567 66.1633 16.007 66.1633 18.6498V18.6498Z"
        fill="black" />
</svg>