<svg width="68" height="120" viewBox="0 0 68 120" fill="none" xmlns="http://www.w3.org/2000/svg">
    <path
        d="M0.0189849 73.5236C0.0189849 64.7721 0.0189849 56.0206 0.0189849 47.2691C0.0189849 46.5209 -0.0859928 45.7401 0.663848 45.3171C1.3687 44.9105 1.8486 45.4798 2.35849 45.8214C23.8039 60.315 45.2494 74.8412 66.6948 89.3186C67.6246 89.953 67.9846 90.6362 67.9846 91.8725C67.9246 100.575 67.9396 109.278 67.9396 117.981C67.9396 118.664 68.0596 119.396 67.3697 119.835C66.6648 120.274 66.185 119.737 65.6751 119.379C51.1581 109.506 36.6262 99.6479 22.1243 89.7415C21.1345 89.0583 20.4147 89.0909 19.4399 89.7578C13.7411 93.6455 8.01229 97.4682 2.2985 101.307C1.75862 101.665 1.24872 102.12 0.588864 101.746C-0.0859928 101.356 0.00398807 100.591 0.00398807 99.892C0.0189849 91.1079 0.0189849 82.3239 0.0189849 73.5236Z"
        fill="white" />
    <path
        d="M67.9695 43.8856C67.9695 47.7733 67.9245 51.6448 67.9995 55.5326C68.0145 56.7526 67.6996 57.4683 66.7398 58.1027C60.3211 62.3483 53.9475 66.6753 47.5588 70.9697C45.9842 72.027 45.1294 71.4902 45.1294 69.4081C45.1144 62.023 45.0994 54.6379 45.1444 47.2365C45.1593 46.0491 44.7994 45.4147 43.8996 44.8128C30.0425 35.4432 16.2005 26.0573 2.34342 16.6714C2.20844 16.5738 2.05848 16.4762 1.9235 16.3786C0.618781 15.4514 0.633778 14.6055 1.98349 13.6946C6.97743 10.3111 11.9864 6.96015 16.9953 3.59294C18.585 2.51933 20.2046 1.462 21.7793 0.355861C22.4542 -0.115874 23.039 -0.115874 23.7289 0.339594C38.1108 10.0996 52.4778 19.8434 66.8747 29.5709C67.6696 30.1077 68.0145 30.7421 67.9995 31.8157C67.9245 35.8336 67.9695 39.8514 67.9695 43.8856Z"
        fill="white" />
</svg>