<svg width="92" height="189" viewBox="0 0 92 189" fill="none" xmlns="http://www.w3.org/2000/svg">
    <path
        d="M2.99842 88.4526C2.99842 78.1622 2.99842 67.8717 2.99842 57.5813C2.99842 56.7015 2.86407 55.7833 3.82371 55.286C4.72577 54.8079 5.33994 55.4773 5.99249 55.879C33.4382 72.9213 60.8839 90.0019 88.3296 107.025C89.5195 107.771 89.9801 108.574 89.9801 110.028C89.9034 120.261 89.9226 130.494 89.9226 140.727C89.9226 141.531 90.0761 142.391 89.1932 142.908C88.2912 143.424 87.677 142.793 87.0245 142.372C68.4458 130.762 49.848 119.171 31.2886 107.522C30.0219 106.719 29.1006 106.757 27.8531 107.542C20.5598 112.113 13.2282 116.608 5.91572 121.122C5.22478 121.543 4.57223 122.078 3.72774 121.638C2.86407 121.179 2.97922 120.28 2.97922 119.458C2.99842 109.129 2.99842 98.8004 2.99842 88.4526Z"
        fill="url(#paint0_linear_358_152)" stroke="#F2F2F2" stroke-width="2.0594" stroke-miterlimit="10" />
    <path
        d="M89.9609 53.6028C89.9609 58.1742 89.9033 62.7265 89.9993 67.2979C90.0185 68.7324 89.6154 69.574 88.3871 70.32C80.1726 75.3122 72.0157 80.4 63.8395 85.4496C61.8243 86.6929 60.7303 86.0617 60.7303 83.6134C60.7111 74.9296 60.6919 66.2459 60.7495 57.543C60.7687 56.1467 60.3081 55.4008 59.1565 54.6931C41.4223 43.6758 23.7074 32.6394 5.97326 21.603C5.80053 21.4883 5.6086 21.3735 5.43586 21.2587C3.76609 20.1685 3.78528 19.1739 5.51263 18.1027C11.9038 14.1243 18.3142 10.1841 24.7246 6.22475C26.7591 4.96236 28.8319 3.71909 30.8471 2.41844C31.7108 1.86375 32.4593 1.86375 33.3422 2.39931C51.7481 13.8756 70.1348 25.3328 88.5598 36.7709C89.5771 37.4021 90.0185 38.148 89.9993 39.4104C89.9033 44.1348 89.9609 48.8593 89.9609 53.6028Z"
        fill="url(#paint1_linear_358_152)" stroke="#F2F2F2" stroke-width="2.0594" stroke-miterlimit="10" />
    <path
        d="M27.6419 170.336C27.6611 169.973 27.7379 169.647 27.6995 169.341C27.6419 168.634 27.9106 168.385 28.6207 168.385C29.3309 168.385 29.542 168.653 29.5228 169.36C29.4652 173.492 29.5228 177.604 29.3884 181.736C29.2925 184.681 27.4116 186.518 24.5327 186.843C22.1144 187.13 19.7729 186.9 17.6425 185.504C17.1434 185.179 16.8556 184.911 17.2778 184.222C17.6808 183.591 17.9879 183.4 18.6213 183.897C19.6577 184.72 20.886 185.083 22.172 185.179C26.1832 185.466 27.7187 183.878 27.5075 179.383C25.9337 180.913 24.168 181.621 22.172 181.449C20.1375 181.277 18.391 180.416 17.201 178.599C15.5504 176.093 15.8767 172.344 17.9112 170.259C20.3678 167.696 23.7842 167.715 27.6419 170.336ZM22.7285 179.613C25.5691 179.67 27.5651 177.815 27.6419 175.022C27.7379 172.191 25.7226 170.087 22.8629 170.068C20.1375 170.049 18.0455 172.153 18.0455 174.869C18.0647 177.547 20.0416 179.555 22.7285 179.613Z"
        fill="url(#paint2_linear_358_152)" stroke="#F2F2F2" stroke-width="2.0594" stroke-miterlimit="10" />
    <path
        d="M34.5514 151.132C33.1695 151.132 31.7876 151.209 30.4057 151.113C29.2349 151.037 29.1966 151.572 29.5036 152.452C30.5401 155.379 34.417 156.45 37.1616 154.594C37.6606 154.25 38.0828 153.466 38.7738 154.48C39.4647 155.512 38.5435 155.761 38.0828 156.105C35.5878 158.018 31.327 157.636 29.139 155.34C26.951 153.064 26.6823 149.009 28.5248 146.236C30.2138 143.711 33.6301 142.85 36.4898 144.227C38.6394 145.26 40.0405 147.804 39.9445 150.252C39.9061 150.998 39.6566 151.171 39.0041 151.151C37.5262 151.113 36.0484 151.132 34.5514 151.132ZM33.5725 149.526C34.7433 149.526 35.914 149.487 37.0848 149.545C37.9677 149.583 38.2172 149.315 37.9293 148.416C37.3535 146.676 35.7029 145.394 33.822 145.318C31.9411 145.241 30.2522 146.408 29.5804 148.168C29.2349 149.047 29.1966 149.621 30.4057 149.545C31.4421 149.449 32.5169 149.526 33.5725 149.526Z"
        fill="url(#paint3_linear_358_152)" stroke="#F2F2F2" stroke-width="2.0594" stroke-miterlimit="10" />
    <path
        d="M40.1749 175.845C38.6971 175.845 37.2 175.883 35.7222 175.826C34.8585 175.807 34.7625 176.074 35.0312 176.897C36.0293 180.129 40.0597 181.392 42.9003 179.269C43.4185 178.886 43.7256 178.37 44.3781 179.211C45.0883 180.129 44.3205 180.378 43.8983 180.722C41.6719 182.52 37.8526 182.52 35.5686 180.761C33.2271 178.963 32.3059 175.692 33.3231 172.632C34.2251 169.915 36.701 168.232 39.6375 168.347C42.9195 168.462 45.4913 171.159 45.6448 174.602C45.6832 175.481 45.4721 175.921 44.5125 175.864C43.0538 175.787 41.6144 175.845 40.1749 175.845ZM34.9353 174.238C37.8526 174.238 40.7507 174.238 43.6488 174.238C43.2266 171.522 41.6336 170.03 39.1961 170.068C36.8737 170.107 35.2999 171.637 34.9353 174.238Z"
        fill="url(#paint4_linear_358_152)" stroke="#F2F2F2" stroke-width="2.0594" stroke-miterlimit="10" />
    <path
        d="M10.9442 180.416C9.02492 182.042 7.00968 182.386 4.84089 181.812C3.07516 181.353 2.01955 179.976 2.00036 178.159C1.98117 176.112 2.72968 175.118 4.72573 174.506C6.45309 173.989 8.19963 174.257 9.94617 174.257C10.8482 174.257 11.0018 173.932 10.9442 173.129C10.8098 171.158 9.37039 169.934 7.18241 170.068C5.97327 170.145 4.76412 170.393 3.7661 171.197C3.30547 171.56 2.97919 171.579 2.65291 170.986C2.36502 170.451 2.19229 170.03 2.86403 169.647C5.30152 168.251 7.81577 167.735 10.4644 168.94C12.1533 169.705 12.8059 171.254 12.8251 173.071C12.8635 175.481 12.8827 177.91 12.8059 180.32C12.7867 180.818 13.3817 181.678 12.2301 181.851C11.2321 182.023 10.8674 181.545 10.9442 180.416ZM8.18044 175.826C8.18044 175.845 8.18044 175.864 8.18044 175.883C7.33595 175.883 6.47228 175.787 5.64699 175.902C4.76412 176.017 4.05399 176.495 3.90044 177.528C3.7661 178.446 3.93883 179.268 4.74493 179.842C6.58744 181.162 9.65828 180.378 10.6947 178.331C11.52 176.705 11.021 175.826 9.29362 175.826C8.92896 175.826 8.5451 175.826 8.18044 175.826Z"
        fill="url(#paint5_linear_358_152)" stroke="#F2F2F2" stroke-width="2.0594" stroke-miterlimit="10" />
    <path
        d="M76.8907 168.519C78.0999 168.079 78.7332 168.538 79.2323 169.8C80.499 172.975 81.9001 176.074 83.3971 179.536C84.9133 175.998 86.3144 172.765 87.6963 169.513C87.9842 168.806 88.2721 168.27 89.1741 168.366C89.7499 168.442 90.1146 168.442 89.7691 169.207C87.5235 174.334 85.3739 179.498 83.0132 184.567C81.9192 186.919 79.1939 187.627 77.0251 186.422C76.5453 186.154 75.8735 185.982 76.315 185.102C76.6988 184.318 77.0443 184.337 77.7736 184.777C78.8292 185.408 80.0767 185.58 80.9404 184.452C81.7657 183.381 82.7253 182.329 81.9384 180.665C80.2687 177.011 78.7332 173.301 77.1402 169.609C77.0059 169.265 76.7372 168.959 76.8907 168.519Z"
        fill="url(#paint6_linear_358_152)" stroke="#F2F2F2" stroke-width="2.0594" stroke-miterlimit="10" />
    <path
        d="M50.9228 170.279C52.2855 168.978 53.8593 168.271 55.7402 168.328C58.7919 168.424 60.8263 170.375 60.9223 173.569C60.999 175.979 60.9031 178.408 60.9606 180.818C60.9798 181.736 60.6536 181.87 59.8667 181.908C58.907 181.947 59.0222 181.373 59.0222 180.761C59.0222 178.618 59.0414 176.476 59.0222 174.334C59.003 171.809 57.8898 170.432 55.8362 170.241C53.13 169.992 51.2875 171.216 51.0188 173.76C50.7885 176.036 50.8844 178.351 50.8652 180.665C50.8652 181.334 50.9612 181.908 49.944 181.908C48.8884 181.908 48.9076 181.373 48.9076 180.588C48.9268 177.184 48.8692 173.779 48.946 170.375C48.9652 169.686 48.255 168.5 49.7904 168.385C51.4026 168.251 50.4814 169.609 50.9228 170.279Z"
        fill="url(#paint7_linear_358_152)" stroke="#F2F2F2" stroke-width="2.0594" stroke-miterlimit="10" />
    <path
        d="M70.9217 168.328C72.5723 168.347 74.0885 168.768 75.2592 170.03C75.5855 170.374 76.3916 170.719 75.6047 171.426C74.9714 172.019 74.5683 171.943 73.9158 171.292C72.4763 169.858 70.3843 169.686 68.6185 170.661C66.968 171.56 65.9699 173.569 66.1619 175.653C66.373 177.853 67.5437 179.536 69.4438 180.053C71.0368 180.493 72.649 180.435 73.8966 179.115C74.6067 178.369 75.1825 178.369 75.7199 179.077C76.3148 179.881 75.432 180.244 75.0289 180.607C73.0521 182.424 69.559 182.558 67.1599 180.971C64.7224 179.364 63.686 176.285 64.4921 173.148C65.2022 170.393 67.6013 168.462 70.4611 168.328C70.6146 168.328 70.7681 168.328 70.9217 168.328Z"
        fill="url(#paint8_linear_358_152)" stroke="#F2F2F2" stroke-width="2.0594" stroke-miterlimit="10" />
    <path
        d="M19.5233 150.138C19.5233 149.315 19.5233 148.493 19.5233 147.671C19.5425 146.446 19.8879 144.993 17.8151 145.452C17.201 145.586 17.201 145.031 17.1818 144.572C17.1818 144.055 17.201 143.482 17.9111 143.635C19.4657 143.96 19.6768 143.099 19.5233 141.818C19.4465 141.225 19.4849 140.727 20.3102 140.785C20.9436 140.823 21.5577 140.823 21.3658 141.722C20.9819 143.616 21.9992 143.788 23.4002 143.616C23.7073 143.577 24.0336 143.635 24.3599 143.596C25.0316 143.539 25.2811 143.826 25.2811 144.534C25.2811 145.299 24.9548 145.433 24.3215 145.452C23.381 145.471 22.0759 144.993 21.6153 145.681C21.1355 146.389 21.4042 147.671 21.4042 148.703C21.385 150.138 21.3658 151.553 21.4042 152.988C21.4618 155.13 22.5557 156.01 24.5134 155.341C25.2619 155.092 25.665 154.977 25.9337 155.857C26.2216 156.813 25.3963 156.852 24.9548 157.005C22.1143 158.037 19.1586 156.488 19.5233 153.084C19.6192 152.127 19.5233 151.133 19.5233 150.138Z"
        fill="url(#paint9_linear_358_152)" stroke="#F2F2F2" stroke-width="2.0594" stroke-miterlimit="10" />
    <path
        d="M45.664 146.848C43.2457 146.829 41.384 144.878 41.4032 142.334C41.4224 139.714 43.2649 137.896 45.8751 137.935C48.2742 137.973 50.0784 139.828 50.0976 142.296C50.1359 144.821 48.1207 146.867 45.664 146.848ZM43.6488 144.974C45.0115 146.274 46.3933 146.064 48.0055 144.935C47.0651 144.935 46.5277 144.629 46.163 143.941C45.9711 143.558 45.3761 143.176 45.3186 143.883C45.2418 145.203 44.4165 144.801 43.7447 144.859C43.7447 143.233 43.7447 141.588 43.7447 139.962C44.5892 139.943 45.4337 139.886 46.2782 139.943C47.6793 140.02 48.5046 141.225 47.7944 142.43C47.1611 143.482 47.6025 143.922 48.1591 144.591C49.3107 142.774 49.2723 141.186 48.1015 139.905C46.9307 138.623 45.2226 138.566 43.5336 139.714C41.979 141.607 41.9982 143.329 43.6488 144.974ZM46.6045 141.588C46.5469 141.129 46.1438 140.976 45.7216 140.957C45.261 140.919 45.2802 141.282 45.261 141.626C45.2418 142.066 45.3377 142.391 45.856 142.315C46.2398 142.238 46.6237 142.2 46.6045 141.588Z"
        fill="url(#paint10_linear_358_152)" />
    <path
        d="M5.07123 145.585C6.08845 144.4 7.2784 143.864 8.6219 143.654C9.12091 143.577 9.61992 143.52 9.61992 144.285C9.63911 144.897 9.71589 145.394 8.81382 145.547C5.99248 146.025 4.93688 147.383 4.8985 150.329C4.8793 152.184 4.8793 154.059 4.8985 155.914C4.91769 156.641 4.8793 157.157 3.91966 157.138C2.92164 157.119 2.99841 156.526 2.99841 155.838C2.99841 152.376 2.97922 148.933 3.0176 145.471C3.03679 144.801 2.4802 143.711 3.90047 143.654C5.32074 143.596 4.6106 144.82 5.07123 145.585Z"
        fill="url(#paint11_linear_358_152)" stroke="#F2F2F2" stroke-width="2.0594" stroke-miterlimit="10" />
    <path
        d="M14.4565 150.444C14.4565 152.357 14.4373 154.288 14.4757 156.201C14.4949 156.909 14.303 157.157 13.5929 157.138C12.9403 157.119 12.5181 157.1 12.5372 156.201C12.5756 152.356 12.5756 148.531 12.5372 144.686C12.5372 143.921 12.7484 143.634 13.5161 143.615C14.3414 143.596 14.4757 143.96 14.4565 144.686C14.4181 146.599 14.4565 148.512 14.4565 150.444Z"
        fill="url(#paint12_linear_358_152)" stroke="#F2F2F2" stroke-width="2.0594" stroke-miterlimit="10" />
    <path
        d="M13.4201 138.26C14.3221 138.279 14.8403 138.623 14.8403 139.522C14.8595 140.345 14.5332 140.899 13.6696 140.919C12.7867 140.957 12.2493 140.536 12.2301 139.599C12.2301 138.738 12.7483 138.355 13.4201 138.26Z"
        fill="url(#paint13_linear_358_152)" stroke="#F2F2F2" stroke-width="2.0594" stroke-miterlimit="10" />
    <defs>
        <linearGradient id="paint0_linear_358_152" x1="12.6859" y1="12.0916" x2="56.7912" y2="147.191"
            gradientUnits="userSpaceOnUse">
            <stop stop-color="white" />
            <stop offset="0.5363" stop-color="#F2F2F2" stop-opacity="0.2" />
            <stop offset="1" stop-color="white" />
        </linearGradient>
        <linearGradient id="paint1_linear_358_152" x1="38.6543" y1="3.61379" x2="82.7595" y2="138.713"
            gradientUnits="userSpaceOnUse">
            <stop stop-color="white" />
            <stop offset="0.5363" stop-color="#F2F2F2" stop-opacity="0.2" />
            <stop offset="1" stop-color="white" />
        </linearGradient>
        <linearGradient id="paint2_linear_358_152" x1="-26.6571" y1="24.9356" x2="17.4482" y2="160.034"
            gradientUnits="userSpaceOnUse">
            <stop stop-color="white" />
            <stop offset="0.5363" stop-color="#F2F2F2" stop-opacity="0.2" />
            <stop offset="1" stop-color="white" />
        </linearGradient>
        <linearGradient id="paint3_linear_358_152" x1="-9.42909" y1="19.3114" x2="34.6761" y2="154.41"
            gradientUnits="userSpaceOnUse">
            <stop stop-color="white" />
            <stop offset="0.5363" stop-color="#F2F2F2" stop-opacity="0.2" />
            <stop offset="1" stop-color="white" />
        </linearGradient>
        <linearGradient id="paint4_linear_358_152" x1="-11.7108" y1="20.0564" x2="32.3945" y2="155.155"
            gradientUnits="userSpaceOnUse">
            <stop stop-color="white" />
            <stop offset="0.5363" stop-color="#F2F2F2" stop-opacity="0.2" />
            <stop offset="1" stop-color="white" />
        </linearGradient>
        <linearGradient id="paint5_linear_358_152" x1="-40.5744" y1="29.4792" x2="3.53091" y2="164.578"
            gradientUnits="userSpaceOnUse">
            <stop stop-color="white" />
            <stop offset="0.5363" stop-color="#F2F2F2" stop-opacity="0.2" />
            <stop offset="1" stop-color="white" />
        </linearGradient>
        <linearGradient id="paint6_linear_358_152" x1="27.207" y1="7.35092" x2="71.3122" y2="142.45"
            gradientUnits="userSpaceOnUse">
            <stop stop-color="white" />
            <stop offset="0.5363" stop-color="#F2F2F2" stop-opacity="0.2" />
            <stop offset="1" stop-color="white" />
        </linearGradient>
        <linearGradient id="paint7_linear_358_152" x1="1.8946" y1="15.6148" x2="45.9999" y2="150.714"
            gradientUnits="userSpaceOnUse">
            <stop stop-color="white" />
            <stop offset="0.5363" stop-color="#F2F2F2" stop-opacity="0.2" />
            <stop offset="1" stop-color="white" />
        </linearGradient>
        <linearGradient id="paint8_linear_358_152" x1="16.5595" y1="10.827" x2="60.6648" y2="145.926"
            gradientUnits="userSpaceOnUse">
            <stop stop-color="white" />
            <stop offset="0.5363" stop-color="#F2F2F2" stop-opacity="0.2" />
            <stop offset="1" stop-color="white" />
        </linearGradient>
        <linearGradient id="paint9_linear_358_152" x1="-19.2953" y1="22.5326" x2="24.81" y2="157.631"
            gradientUnits="userSpaceOnUse">
            <stop stop-color="white" />
            <stop offset="0.5363" stop-color="#F2F2F2" stop-opacity="0.2" />
            <stop offset="1" stop-color="white" />
        </linearGradient>
        <linearGradient id="paint10_linear_358_152" x1="3.88764" y1="14.964" x2="47.993" y2="150.063"
            gradientUnits="userSpaceOnUse">
            <stop stop-color="white" />
            <stop offset="0.5363" stop-color="#F2F2F2" stop-opacity="0.2" />
            <stop offset="1" stop-color="white" />
        </linearGradient>
        <linearGradient id="paint11_linear_358_152" x1="-34.0989" y1="27.3652" x2="10.0064" y2="162.464"
            gradientUnits="userSpaceOnUse">
            <stop stop-color="white" />
            <stop offset="0.5363" stop-color="#F2F2F2" stop-opacity="0.2" />
            <stop offset="1" stop-color="white" />
        </linearGradient>
        <linearGradient id="paint12_linear_358_152" x1="-27.6347" y1="25.2549" x2="16.4706" y2="160.354"
            gradientUnits="userSpaceOnUse">
            <stop stop-color="white" />
            <stop offset="0.5363" stop-color="#F2F2F2" stop-opacity="0.2" />
            <stop offset="1" stop-color="white" />
        </linearGradient>
        <linearGradient id="paint13_linear_358_152" x1="-24.3792" y1="24.192" x2="19.7262" y2="159.291"
            gradientUnits="userSpaceOnUse">
            <stop stop-color="white" />
            <stop offset="0.5363" stop-color="#F2F2F2" stop-opacity="0.2" />
            <stop offset="1" stop-color="white" />
        </linearGradient>
    </defs>
</svg>