<?xml version="1.0" encoding="iso-8859-1"?>
<!-- Generator: Adobe Illustrator 19.0.0, SVG Export Plug-In . SVG Version: 6.00 Build 0)  -->
<svg version="1.1" id="Layer_1" xmlns="http://www.w3.org/2000/svg" xmlns:xlink="http://www.w3.org/1999/xlink" x="0px"
	y="0px" viewBox="0 0 512 512" style="enable-background:new 0 0 512 512;" xml:space="preserve">
	<g>
		<path style="fill:#38454F;" d="M185.379,384v17.655h141.241V384H476.69V101.517c0-9.754-7.901-17.655-17.655-17.655H52.966
		c-9.754,0-17.655,7.901-17.655,17.655V384H185.379z" />
		<polygon style="fill:#546A79;" points="52.966,366.345 459.034,366.345 459.034,101.517 52.966,101.517 	" />
		<g>
			<path style="fill:#ECBA16;" d="M423.724,242.759c-4.873,0-8.828-3.955-8.828-8.828v-61.793c0-4.873,3.955-8.828,8.828-8.828
			c4.873,0,8.828,3.955,8.828,8.828v61.793C432.552,238.804,428.597,242.759,423.724,242.759" />
			<path style="fill:#ECBA16;" d="M423.724,180.966h-61.793c-4.873,0-8.828-3.955-8.828-8.828c0-4.873,3.955-8.828,8.828-8.828
			h61.793c4.873,0,8.828,3.955,8.828,8.828C432.552,177.011,428.597,180.966,423.724,180.966" />
		</g>
		<g>
			<path style="fill:#EA6148;" d="M79.448,313.379c-4.873,0-8.828-3.955-8.828-8.828V163.31c0-4.873,3.955-8.828,8.828-8.828
			c4.873,0,8.828,3.955,8.828,8.828v141.241C88.276,309.425,84.321,313.379,79.448,313.379" />
			<path style="fill:#EA6148;" d="M150.069,189.793h-35.31c-4.873,0-8.828-3.955-8.828-8.828s3.955-8.828,8.828-8.828h35.31
			c4.873,0,8.828,3.955,8.828,8.828S154.942,189.793,150.069,189.793" />
			<path style="fill:#EA6148;" d="M132.414,225.103h-17.655c-4.873,0-8.828-3.955-8.828-8.828c0-4.873,3.955-8.828,8.828-8.828
			h17.655c4.873,0,8.828,3.955,8.828,8.828C141.241,221.149,137.287,225.103,132.414,225.103" />
			<path style="fill:#EA6148;" d="M150.069,260.414h-35.31c-4.873,0-8.828-3.955-8.828-8.828s3.955-8.828,8.828-8.828h35.31
			c4.873,0,8.828,3.955,8.828,8.828S154.942,260.414,150.069,260.414" />
			<path style="fill:#EA6148;" d="M132.414,295.724h-17.655c-4.873,0-8.828-3.955-8.828-8.828s3.955-8.828,8.828-8.828h17.655
			c4.873,0,8.828,3.955,8.828,8.828S137.287,295.724,132.414,295.724" />
		</g>
		<path style="fill:#B0B6BB;" d="M326.621,384v17.655H185.379V384H0v26.483c0,9.754,7.901,17.655,17.655,17.655h476.69
		c9.754,0,17.655-7.901,17.655-17.655V384H326.621z" />
		<g>
			<path style="fill:#ECBA16;"
				d="M220.69,295.724c-2.26,0-4.52-0.865-6.241-2.586c-3.452-3.452-3.452-9.031,0-12.482l70.621-70.621
			c3.452-3.452,9.031-3.452,12.482,0s3.452,9.031,0,12.482l-70.621,70.621C225.209,294.859,222.95,295.724,220.69,295.724" />
			<path style="fill:#ECBA16;" d="M335.448,269.241c-2.26,0-4.52-0.865-6.241-2.586l-44.138-44.138
			c-3.452-3.452-3.452-9.031,0-12.482c3.452-3.452,9.031-3.452,12.482,0l44.138,44.138c3.452,3.452,3.452,9.031,0,12.482
			C339.968,268.376,337.708,269.241,335.448,269.241" />
			<path style="fill:#ECBA16;"
				d="M335.448,269.241c-2.26,0-4.52-0.865-6.241-2.586c-3.452-3.452-3.452-9.031,0-12.482l88.276-88.276
			c3.452-3.452,9.031-3.452,12.482,0s3.452,9.031,0,12.482l-88.276,88.276C339.968,268.376,337.708,269.241,335.448,269.241" />
		</g>
	</g>
	<g>
	</g>
	<g>
	</g>
	<g>
	</g>
	<g>
	</g>
	<g>
	</g>
	<g>
	</g>
	<g>
	</g>
	<g>
	</g>
	<g>
	</g>
	<g>
	</g>
	<g>
	</g>
	<g>
	</g>
	<g>
	</g>
	<g>
	</g>
	<g>
	</g>
</svg>