<svg width="22" height="22" viewBox="0 0 22 22" fill="none" xmlns="http://www.w3.org/2000/svg">
    <path
        d="M20.8663 8.79967L18.9997 8.19967L18.5997 7.19967L19.533 5.46634C19.733 5.06634 19.6663 4.53301 19.333 4.19967L17.733 2.59967C17.3997 2.26634 16.8663 2.19967 16.4663 2.39967L14.733 3.33301L13.733 2.93301L13.133 1.06634C12.9997 0.666341 12.5997 0.333008 12.133 0.333008H9.86634C9.39967 0.333008 8.99967 0.666341 8.93301 1.13301L8.33301 2.99967C7.93301 3.06634 7.59967 3.19967 7.26634 3.39967L5.53301 2.46634C5.13301 2.26634 4.59967 2.33301 4.26634 2.66634L2.66634 4.26634C2.33301 4.59967 2.26634 5.13301 2.46634 5.53301L3.33301 7.19967C3.19967 7.53301 3.06634 7.93301 2.93301 8.26634L1.06634 8.86634C0.666341 8.99967 0.333008 9.39967 0.333008 9.86634V12.133C0.333008 12.5997 0.666341 12.9997 1.13301 13.133L2.99967 13.733L3.39967 14.733L2.46634 16.4663C2.26634 16.8663 2.33301 17.3997 2.66634 17.733L4.26634 19.333C4.59967 19.6663 5.13301 19.733 5.53301 19.533L7.26634 18.5997L8.26634 18.9997L8.86634 20.933C8.99967 21.333 9.39967 21.6663 9.86634 21.6663H12.133C12.5997 21.6663 12.9997 21.333 13.133 20.933L13.733 18.9997L14.733 18.5997L16.4663 19.533C16.8663 19.733 17.3997 19.6663 17.733 19.333L19.333 17.733C19.6663 17.3997 19.733 16.8663 19.533 16.4663L18.5997 14.733L18.9997 13.733L20.933 13.133C21.333 12.9997 21.6663 12.5997 21.6663 12.133V9.86634C21.6663 9.39967 21.333 8.93301 20.8663 8.79967ZM20.333 11.933L17.933 12.6663L17.8663 12.9997L17.2663 14.3997L17.0663 14.733L18.2663 16.933L16.933 18.2663L14.733 17.0663L14.3997 17.2663C13.933 17.533 13.4663 17.733 12.9997 17.8663L12.6663 17.933L11.933 20.333H10.0663L9.33301 17.933L8.99967 17.8663L7.59967 17.2663L7.26634 17.0663L5.06634 18.2663L3.73301 16.933L4.93301 14.733L4.73301 14.3997C4.46634 13.933 4.26634 13.4663 4.13301 12.9997L4.06634 12.6663L1.66634 11.933V10.0663L3.93301 9.39968L4.06634 9.06634C4.19967 8.53301 4.39967 8.06634 4.66634 7.59967L4.86634 7.26634L3.73301 5.06634L5.06634 3.73301L7.19967 4.93301L7.53301 4.73301C7.99967 4.46634 8.46634 4.26634 8.99967 4.13301L9.33301 3.99967L10.0663 1.66634H11.933L12.6663 3.99967L12.9997 4.13301C13.4663 4.26634 13.933 4.46634 14.3997 4.73301L14.733 4.93301L16.933 3.73301L18.2663 5.06634L17.0663 7.26634L17.2663 7.59967C17.533 8.06634 17.733 8.53301 17.8663 8.99967L17.933 9.33301L20.333 10.0663V11.933Z"
        fill="#4B5563" />
</svg>