<svg width="40" height="40" viewBox="0 0 40 40" fill="none" xmlns="http://www.w3.org/2000/svg">
    <path
        d="M27.5193 22.3954L20.0033 14.8794L12.4873 22.3954L14.3729 24.281L18.67 19.9839V39.9999H21.3366V19.9839L25.6337 24.281L27.5193 22.3954Z"
        fill="white" />
    <path
        d="M32 12.1211V12C32 5.38333 26.6167 0 20 0C13.3833 0 8 5.38333 8 12V12.2076C6.0251 12.5803 4.20449 13.5286 2.76717 14.9333C1.89248 15.7823 1.19691 16.798 0.721617 17.9205C0.246321 19.0429 0.00094433 20.2493 0 21.4682C0 24.0615 1.06567 26.5318 3.00083 28.424C4.89167 30.2729 7.44483 31.3333 10.0058 31.3333H15.3333V28.6667H10.0058C6.09617 28.6667 2.66667 25.3029 2.66667 21.4682C2.66667 17.9459 5.63667 14.9753 9.42808 14.7053L10.6667 14.6171V12C10.6667 9.52465 11.65 7.15068 13.4003 5.40034C15.1507 3.65 17.5246 2.66667 20 2.66667C22.4754 2.66667 24.8493 3.65 26.5997 5.40034C28.35 7.15068 29.3333 9.52465 29.3333 12V14.67L30.65 14.6867C34.5227 14.7357 37.3333 17.5877 37.3333 21.4682C37.3333 25.5047 34.3622 28.6667 30.5692 28.6667H24.6667V31.3333H30.5692C31.8396 31.3375 33.097 31.077 34.2612 30.5683C35.4254 30.0596 36.4708 29.3139 37.3308 28.3788C39.0521 26.5282 40 24.0741 40 21.4682C40 16.5985 36.643 12.7827 32 12.1211Z"
        fill="white" />
</svg>