<?xml version="1.0" encoding="iso-8859-1"?>
<!-- Generator: Adobe Illustrator 19.0.0, SVG Export Plug-In . SVG Version: 6.00 Build 0)  -->
<svg version="1.1" id="Capa_1" xmlns="http://www.w3.org/2000/svg" xmlns:xlink="http://www.w3.org/1999/xlink" x="0px" y="0px"
	 viewBox="0 0 512 512" style="enable-background:new 0 0 512 512;" xml:space="preserve">
<g>
	<g>
		<rect x="16" y="60" style="fill:#FFFFFF;" width="480" height="272"/>
	</g>
	<g>
		<path style="fill:#FF4F19;" d="M64,52v64c0,17.673,14.327,32,32,32s32-14.327,32-32V52H64z"/>
	</g>
	<g>
		<path style="fill:#E7001E;" d="M0,84l0,30.625c0,16.713,12.219,31.639,28.857,33.225C47.943,149.67,64,134.71,64,116V52H32
			C14.327,52,0,66.327,0,84z"/>
	</g>
	<g>
		<path style="fill:#FF4F19;" d="M192,52v64c0,17.673,14.327,32,32,32s32-14.327,32-32V52H192z"/>
	</g>
	<g>
		<path style="fill:#E7001E;" d="M128,52v64c0,17.673,14.327,32,32,32s32-14.327,32-32V52H128z"/>
	</g>
	<g>
		<path style="fill:#FF4F19;" d="M320,52v64c0,17.673,14.327,32,32,32s32-14.327,32-32V52H320z"/>
	</g>
	<g>
		<path style="fill:#E7001E;" d="M256,52v64c0,17.673,14.327,32,32,32s32-14.327,32-32V52H256z"/>
	</g>
	<g>
		<path style="fill:#FF4F19;" d="M448,52l0,62.625c0,16.713,12.219,31.639,28.857,33.225C495.943,149.67,512,134.71,512,116V84
			c0-17.673-14.327-32-32-32H448z"/>
	</g>
	<g>
		<path style="fill:#E7001E;" d="M384,52v64c0,17.673,14.327,32,32,32s32-14.327,32-32V52H384z"/>
	</g>
	<g>
		<path style="fill:#646464;" d="M504,348H8c-4.422,0-8-3.578-8-8s3.578-8,8-8h496c4.422,0,8,3.578,8,8S508.422,348,504,348z"/>
	</g>
	<g>
		<path style="fill:#5C546A;" d="M368,452h-32.938l-7.124-56.992c-0.5-4.004-3.906-7.008-7.938-7.008H192
			c-4.031,0-7.438,3.004-7.938,7.008L176.939,452H144c-4.422,0-8,3.582-8,8s3.578,8,8,8h224c4.422,0,8-3.582,8-8
			S372.422,452,368,452z"/>
	</g>
	<g>
		<g>
			<path style="fill:#FF4F19;" d="M264,180h-16c-4.422,0-8-3.582-8-8s3.578-8,8-8h16c4.422,0,8,3.582,8,8S268.422,180,264,180z"/>
		</g>
	</g>
	<g>
		<g>
			<path style="fill:#FF4F19;" d="M264,244h-16c-4.422,0-8-3.582-8-8s3.578-8,8-8h16c4.422,0,8,3.582,8,8S268.422,244,264,244z"/>
		</g>
	</g>
	<g>
		<g>
			<path style="fill:#E7001E;" d="M264,276h-16c-4.422,0-8-3.582-8-8s3.578-8,8-8h16c4.422,0,8,3.582,8,8S268.422,276,264,276z"/>
		</g>
	</g>
	<g>
		<g>
			<path style="fill:#FF4F19;" d="M264,308h-16c-4.422,0-8-3.582-8-8s3.578-8,8-8h16c4.422,0,8,3.582,8,8S268.422,308,264,308z"/>
		</g>
	</g>
	<g>
		<g>
			<path style="fill:#E7001E;" d="M264,212h-16c-4.422,0-8-3.582-8-8s3.578-8,8-8h16c4.422,0,8,3.582,8,8S268.422,212,264,212z"/>
		</g>
	</g>
	<g>
		<g>
			<path style="fill:#B8BAC0;" d="M384,180h-88c-4.422,0-8-3.582-8-8s3.578-8,8-8h88c4.422,0,8,3.582,8,8S388.422,180,384,180z"/>
		</g>
	</g>
	<g>
		<g>
			<path style="fill:#B8BAC0;" d="M408,244H296c-4.422,0-8-3.582-8-8s3.578-8,8-8h112c4.422,0,8,3.582,8,8S412.422,244,408,244z"/>
		</g>
	</g>
	<g>
		<g>
			<path style="fill:#B8BAC0;" d="M456,276H296c-4.422,0-8-3.582-8-8s3.578-8,8-8h160c4.422,0,8,3.582,8,8S460.422,276,456,276z"/>
		</g>
	</g>
	<g>
		<g>
			<path style="fill:#B8BAC0;" d="M376,308h-80c-4.422,0-8-3.582-8-8s3.578-8,8-8h80c4.422,0,8,3.582,8,8S380.422,308,376,308z"/>
		</g>
	</g>
	<g>
		<g>
			<path style="fill:#B8BAC0;" d="M416,212H296c-4.422,0-8-3.582-8-8s3.578-8,8-8h120c4.422,0,8,3.582,8,8S420.422,212,416,212z"/>
		</g>
	</g>
	<g>
		<path style="fill:#8A8895;" d="M480,404H32c-17.673,0-32-14.327-32-32v-40h512v40C512,389.673,497.673,404,480,404z"/>
	</g>
	<g>
		<path style="fill:#5C546A;" d="M480,44H32C14.352,44,0,58.355,0,76v256v16h16h480h16v-16V76C512,58.355,497.648,44,480,44z
			 M16,332V76c0-8.824,7.18-16,16-16h448c8.82,0,16,7.176,16,16v256H16z"/>
	</g>
	<g>
		<g>
			<g>
				<path style="fill:#8A8895;" d="M176,300H96c-4.422,0-8-3.582-8-8s3.578-8,8-8h80c4.422,0,8,3.582,8,8S180.422,300,176,300z"/>
			</g>
		</g>
		<g>
			<circle style="fill:#5C546A;" cx="176" cy="292" r="16"/>
		</g>
		<g>
			<path style="fill:#B8BAC0;" d="M184.57,204.02l-112-8c-2.555-0.164-5.133,0.91-6.781,2.938s-2.195,4.73-1.484,7.242l16,56
				C81.289,265.633,84.43,268,88,268h80c13.234,0,24-10.766,24-24v-32C192,207.805,188.758,204.32,184.57,204.02z"/>
		</g>
		<g>
			<path style="fill:#8A8895;" d="M192,196H74.834l-3.185-10.352c-0.042-0.135-0.146-0.227-0.195-0.358
				c-0.195-0.536-0.497-0.988-0.796-1.464c-0.261-0.415-0.48-0.842-0.806-1.196c-0.339-0.37-0.75-0.633-1.154-0.934
				c-0.427-0.318-0.823-0.651-1.303-0.879c-0.406-0.192-0.847-0.269-1.287-0.392c-0.574-0.162-1.128-0.322-1.733-0.35
				C64.243,180.069,64.133,180,64,180H48c-4.422,0-8,3.582-8,8s3.578,8,8,8h10.089l30.262,98.352
				c1.063,3.441,4.227,5.652,7.648,5.652c0.773,0,1.57-0.117,2.352-0.359c4.227-1.297,6.594-5.773,5.297-9.996L79.757,212H192
				c4.422,0,8-3.582,8-8S196.422,196,192,196z"/>
		</g>
		<g>
			<circle style="fill:#5C546A;" cx="88" cy="292" r="16"/>
		</g>
	</g>
</g>
<g>
</g>
<g>
</g>
<g>
</g>
<g>
</g>
<g>
</g>
<g>
</g>
<g>
</g>
<g>
</g>
<g>
</g>
<g>
</g>
<g>
</g>
<g>
</g>
<g>
</g>
<g>
</g>
<g>
</g>
</svg>
