<svg xmlns="http://www.w3.org/2000/svg" width="100" height="68" viewBox="0 0 100 68" fill="none">
    <path
        d="M0.655737 60.0116L1.53968 63.1731C1.71077 63.8223 1.88186 64.4151 1.99591 64.9796H2.02443C2.13849 64.4433 2.33809 63.7941 2.53769 63.2013L3.56421 60.0398H4.07747L5.04696 63.1448C5.27507 63.8223 5.41764 64.4151 5.56021 64.9796H5.58873C5.70279 64.4151 5.87387 63.8505 6.07347 63.1731L6.98593 60.0116H7.55622L5.78833 65.6853H5.3321L4.36261 62.4956C4.13449 61.8464 3.99192 61.2818 3.84935 60.6326H3.82084C3.67826 61.3101 3.47866 61.8746 3.27906 62.5238L2.22403 65.6853H1.73929L0.0854492 60.0116H0.655737Z"
        fill="#524FA1" />
    <path
        d="M14.3142 57.33H14.856V60.8866H14.8845C15.0271 60.6043 15.2837 60.3221 15.5688 60.1527C15.854 59.9833 16.1962 59.8704 16.5954 59.8704C17.1371 59.8704 18.3633 60.1527 18.3633 62.0722V65.6571H17.8215V62.1569C17.8215 61.1971 17.4793 60.3221 16.4528 60.3221C15.7114 60.3221 15.1126 60.8584 14.913 61.5641C14.856 61.7334 14.856 61.8746 14.856 62.0722V65.6288H14.3142V57.33Z"
        fill="#524FA1" />
    <path
        d="M25.9482 58.4309C25.9482 58.7132 25.7771 58.9108 25.4919 58.9108C25.2638 58.9108 25.0642 58.7132 25.0642 58.4309C25.0642 58.1769 25.2638 57.951 25.5204 57.951C25.8056 57.951 25.9482 58.1769 25.9482 58.4309ZM25.2353 60.0117H25.7771V65.6854H25.2353V60.0117Z"
        fill="#524FA1" />
    <path
        d="M34.1032 58.7697V60.0117H35.586V60.4633H34.1032V64.2176C34.1032 64.9515 34.3313 65.3467 34.8731 65.3467C35.1297 65.3467 35.3008 65.3184 35.4149 65.262L35.5004 65.6854C35.3293 65.7701 35.1012 65.7983 34.7876 65.7983C34.3884 65.7983 34.0747 65.6854 33.8751 65.4313C33.647 65.1491 33.5614 64.6974 33.5614 64.1046V60.4633H32.6775V60.0117H33.5614V58.9955L34.1032 58.7697Z"
        fill="#524FA1" />
    <path
        d="M42.8286 62.7497C42.8286 64.7256 43.7696 65.3184 44.7961 65.3184C45.509 65.3184 45.9082 65.1773 46.1933 65.0361L46.3359 65.4595C46.1078 65.6007 45.566 65.7983 44.7391 65.7983C43.1993 65.7983 42.2869 64.6127 42.2869 62.9191C42.2869 61.056 43.2564 59.8705 44.5965 59.8705C46.2504 59.8705 46.5925 61.5077 46.5925 62.3827C46.5925 62.5239 46.5925 62.6086 46.5925 62.7215H42.8286V62.7497ZM46.0223 62.298C46.0508 61.3383 45.623 60.3504 44.5395 60.3504C43.456 60.3504 42.9712 61.423 42.8572 62.298H46.0223Z"
        fill="#524FA1" />
    <path
        d="M53.5215 64.9514C53.8067 65.1208 54.2059 65.3184 54.6906 65.3184C55.5175 65.3184 55.9167 64.8667 55.9167 64.2457C55.9167 63.653 55.6031 63.3142 54.8332 62.9473C53.9778 62.5521 53.4645 62.0722 53.4645 61.3665C53.4645 60.5479 54.1203 59.8705 55.1183 59.8705C55.6316 59.8705 56.0308 60.0116 56.2874 60.2092L56.0593 60.6609C55.8597 60.5197 55.546 60.3504 55.0328 60.3504C54.3484 60.3504 53.9778 60.802 53.9778 61.3101C53.9778 61.8746 54.3199 62.1287 55.0328 62.4674C55.8597 62.8344 56.43 63.286 56.43 64.1611C56.43 65.1773 55.6886 65.7983 54.6051 65.7983C54.0918 65.7983 53.6356 65.6571 53.2649 65.4313L53.5215 64.9514Z"
        fill="#524FA1" />
    <path
        d="M63.2164 61.8182C63.2164 61.0278 63.1879 60.4915 63.1594 60.0116H63.6727L63.7012 60.9996H63.7297C64.1289 60.2656 64.7562 59.8987 65.5831 59.8987C66.8663 59.8987 67.7788 60.9996 67.7788 62.7779C67.7788 64.8385 66.6667 65.7982 65.4406 65.7982C64.6992 65.7982 64.1004 65.4313 63.7582 64.8385H63.7297V68H63.1879V61.8182H63.2164ZM63.7582 63.5118C63.7582 63.6529 63.7582 63.8223 63.8153 63.9634C64.0434 64.9232 64.7277 65.3748 65.4406 65.3748C66.6382 65.3748 67.237 64.2739 67.237 62.8343C67.237 61.5641 66.6382 60.3785 65.4691 60.3785C64.7277 60.3785 64.0149 60.9996 63.8153 61.8464C63.7867 61.9875 63.7582 62.1569 63.7582 62.3262V63.5118Z"
        fill="#524FA1" />
    <path
        d="M78.2149 64.3587C78.2149 64.8103 78.2149 65.2619 78.3005 65.6853H77.7872L77.7017 64.9232H77.6732C77.4165 65.3748 76.8462 65.7983 76.0763 65.7983C75.0498 65.7983 74.5081 65.0643 74.5081 64.2457C74.5081 62.9191 75.6486 62.1851 77.6732 62.1851V62.0158C77.6732 61.3383 77.5591 60.3504 76.333 60.3504C75.9053 60.3504 75.449 60.4633 75.0783 60.7173L74.9073 60.3221C75.335 60.0116 75.9053 59.8705 76.4185 59.8705C77.8157 59.8705 78.2149 60.8584 78.2149 61.9875V64.3587ZM77.6732 62.6368C76.6752 62.6085 75.1069 62.7497 75.1069 64.1611C75.1069 64.9797 75.6201 65.3466 76.1334 65.3466C76.9603 65.3466 77.445 64.8103 77.6161 64.2175C77.6446 64.1046 77.6732 63.9635 77.6732 63.8788V62.6368Z"
        fill="#524FA1" />
    <path
        d="M88.9364 65.4595C88.7083 65.6007 88.1665 65.7983 87.4822 65.7983C85.9994 65.7983 84.9729 64.6692 84.9729 62.8908C84.9729 61.169 86.0564 59.8705 87.6533 59.8705C88.2521 59.8705 88.7368 60.0398 88.9364 60.181L88.7368 60.6326C88.5087 60.4915 88.138 60.3504 87.5677 60.3504C86.1705 60.3504 85.5147 61.5641 85.5147 62.8626C85.5147 64.3587 86.3416 65.2902 87.5392 65.2902C88.081 65.2902 88.4802 65.149 88.7653 65.0079L88.9364 65.4595Z"
        fill="#524FA1" />
    <path
        d="M96.2075 62.7497C96.2075 64.7256 97.1485 65.3184 98.175 65.3184C98.8879 65.3184 99.2871 65.1773 99.5722 65.0361L99.7148 65.4595C99.4867 65.6007 98.9449 65.7983 98.118 65.7983C96.5782 65.7983 95.6658 64.6127 95.6658 62.9191C95.6658 61.056 96.6353 59.8705 97.9754 59.8705C99.6293 59.8705 99.9714 61.5077 99.9714 62.3827C99.9714 62.5239 99.9714 62.6086 99.9714 62.7215H96.2075V62.7497ZM99.4012 62.298C99.4297 61.3383 99.002 60.3504 97.9184 60.3504C96.8349 60.3504 96.3501 61.423 96.2361 62.298H99.4012Z"
        fill="#524FA1" />
    <path
        d="M4.19162 4.26233C3.25064 1.46781 2.05304 0.67744 0 0.254028H11.6054L19.9316 24.9813L15.5689 37.6554L4.19162 4.26233ZM22.6404 4.26233C21.6995 1.46781 20.4448 0.67744 18.4488 0.254028H31.3088C30.7956 1.18554 30.7956 2.34286 31.5084 4.57283L38.3804 24.9248L34.0177 37.6837L22.6404 4.26233Z"
        fill="#524FA1" />
    <path
        d="M67.7502 28.5098C66.8662 33.1955 62.1328 36.8086 55.4319 36.9215C59.424 36.7239 61.6196 33.8165 61.6196 31.4736C61.6766 28.2557 60.1938 26.2798 53.55 22.8643C47.2483 19.9568 41.6025 17.0494 41.631 10.4442C41.688 4.37526 46.2503 0.11291 53.3789 0C48.9592 0.366957 47.0202 3.72603 48.2748 7.93192C50.7271 11.9402 53.2078 13.6339 55.5175 14.4242C61.1348 17.1905 69.0048 20.6625 67.7502 28.5098Z"
        fill="#524FA1" />
    <path
        d="M96.9775 36.7804C99.4298 36.3005 99.8575 35.1149 99.8575 30.1751V4.7704C99.8575 1.66538 98.9735 0.875009 96.9775 0.395142H71.9419V32.1793C71.9419 35.4537 72.7403 36.3287 74.8219 36.7521H96.9775V36.7804ZM86.7124 7.90365C86.7124 4.93976 85.9139 0.733871 80.8954 0.423369C93.841 0.620961 94.953 7.90365 94.953 10.6417C94.953 13.6621 93.4418 20.5213 81.038 20.7189C85.6003 20.4084 86.7124 16.3437 86.7124 13.7467V7.90365Z"
        fill="#524FA1" />
    <path d="M100 42.5388H0.114014V50.0191H100V42.5388Z" fill="#FFCD5D" />
</svg>